# xmcd
#
# Track frame offsets:
#	150
#	10372
#	21300
#	33657
#	48422
#	64707
#	79322
#	95467
#	113847
#	125800
#	138690
#	152017
#	164875
#	178945
#	194120
#	204407
#	217650
#	228197
#	244505
#	257505
#
# Disc length: 3645 seconds
#
# Revision: 1
# Processed by: cddbd v1.5.2PL0 Copyright (c) Steve Scherf et al.
# Submitted via: audiograbber 1.83.01
#
DISCID=230e3b14
DTITLE=Various Artist - Country superstars live
DYEAR=1900
DGENRE=Country
TTITLE0=Jim Reeves - He'll have to go
TTITLE1=Charley Pride - Oklahoma morning
TTITLE2=Loretta Lynn - Me and Bobby McGee
TTITLE3=Johnny Cash - I walk the line
TTITLE4=Willie Nelson - Always on my mind
TTITLE5=Jerry Lee Lewis - What's made Milwalkee famous
TTITLE6=Brenda Lee - Johnny one time
TTITLE7=Tom T Hall - I like beer
TTITLE8=Jim Reeves - Mexican Joe
TTITLE9=Charley Pride - Crystal Chandeliers
TTITLE10=Loretta Lynn - Let your love flow
TTITLE11=Johnny Cash - Ring of fire
TTITLE12=Willie Nelson - Blue eyes crying in the rain
TTITLE13=Jerry Lee Lewis - Cold cold heart
TTITLE14=Brenda Lee - I'm sorry
TTITLE15=Charlie Pride - Kaw Liga
TTITLE16=Loretta Lynn - You're looking at country
TTITLE17=Johnny Cash - A boy named Sue
TTITLE18=Willie Nelson - To all the girls l've loved before
TTITLE19=Jerry Lee Lewis - Middled aged crazy
EXTD=corrected artists andtrack names in correct fields
EXTT0=
EXTT1=
EXTT2=
EXTT3=
EXTT4=
EXTT5=
EXTT6=
EXTT7=
EXTT8=
EXTT9=
EXTT10=
EXTT11=
EXTT12=
EXTT13=
EXTT14=
EXTT15=
EXTT16=
EXTT17=
EXTT18=
EXTT19=
PLAYORDER=
